<svg xmlns="http://www.w3.org/2000/svg" width="24" height="24" fill="none" viewBox="0 0 24 24"><path fill="#CFCFD0" fill-rule="evenodd" d="M13.6979 7.51236C13.1685 5.82926 10.8315 5.82926 10.3021 7.51236C10.258 7.65249 10.1417 7.72477 10.035 7.72477C8.25954 7.72477 7.63517 9.99755 8.97762 11.0051C9.07911 11.0812 9.13287 11.2295 9.08765 11.3733C8.82931 12.1946 9.16175 12.9661 9.72817 13.3912C10.2981 13.819 11.141 13.9181 11.843 13.3912C11.9383 13.3197 12.0617 13.3197 12.157 13.3912C12.859 13.9181 13.7019 13.819 14.2718 13.3912C14.8382 12.9661 15.1707 12.1946 14.9123 11.3733C14.8671 11.2295 14.9209 11.0812 15.0224 11.0051C16.3648 9.99755 15.7405 7.72477 13.965 7.72477C13.8583 7.72477 13.742 7.65249 13.6979 7.51236ZM11.733 7.96244C11.822 7.67923 12.178 7.67923 12.267 7.96244C12.4996 8.70168 13.1766 9.22477 13.965 9.22477C14.0418 9.22477 14.091 9.24757 14.1277 9.27688C14.1695 9.31031 14.2093 9.3649 14.232 9.43717C14.2779 9.58313 14.2384 9.71801 14.122 9.80537C13.4993 10.2727 13.2501 11.0877 13.4815 11.8233C13.5324 11.9852 13.4748 12.114 13.3714 12.1915C13.3185 12.2312 13.2633 12.2485 13.2174 12.2499C13.1777 12.2512 13.1245 12.2419 13.0574 12.1915C12.4286 11.7196 11.5714 11.7196 10.9426 12.1915C10.8755 12.2419 10.8223 12.2512 10.7826 12.2499C10.7366 12.2485 10.6815 12.2312 10.6286 12.1915C10.5252 12.114 10.4676 11.9852 10.5185 11.8233C10.7499 11.0877 10.5007 10.2727 9.87801 9.80537C9.76161 9.71801 9.72207 9.58313 9.76798 9.43717C9.79072 9.3649 9.83046 9.31031 9.87229 9.27688C9.90897 9.24757 9.9582 9.22477 10.035 9.22477C10.8234 9.22477 11.5004 8.70168 11.733 7.96244Z" clip-rule="evenodd"/><path fill="#CFCFD0" fill-rule="evenodd" d="M11.8383 1.25002C10.132 1.24975 9.09078 1.24958 8.22326 1.53146C6.47274 2.10024 5.10031 3.47267 4.53153 5.22319L4.52291 5.25003H4.23087C0.525334 5.25003 -1.06647 9.95211 1.87705 12.203L1.8877 12.2112L4.35461 13.9615C4.44402 14.025 4.53679 14.0834 4.63249 14.1365C4.63386 14.14 4.63523 14.1436 4.6366 14.1472C4.64621 14.1723 4.65606 14.1973 4.66613 14.2224C4.92162 14.857 5.42031 15.6184 5.89993 16.1063C6.68156 16.9012 7.49044 17.2538 8.78209 17.8167L8.86793 17.8541C9.42429 18.0967 9.98686 18.3167 10.5092 18.4772C10.7566 18.5532 11.0063 18.6196 11.2501 18.6678V21.25H8.00011C7.58589 21.25 7.25011 21.5858 7.25011 22C7.25011 22.4142 7.58589 22.75 8.00011 22.75H16.0001C16.4143 22.75 16.7501 22.4142 16.7501 22C16.7501 21.5858 16.4143 21.25 16.0001 21.25H12.7501V18.6678C12.9939 18.6196 13.2436 18.5532 13.491 18.4772C14.0134 18.3167 14.5759 18.0967 15.1323 17.8541L15.2181 17.8167C16.5098 17.2538 17.3187 16.9012 18.1003 16.1063C18.5799 15.6184 19.0786 14.857 19.3341 14.2224C19.3453 14.1945 19.3562 14.1667 19.3668 14.1388C19.4646 14.0832 19.5595 14.0227 19.6513 13.9576L22.1126 12.2112L22.1233 12.203C25.0668 9.95211 23.475 5.25003 19.7695 5.25003H19.4773L19.4687 5.22319C18.8999 3.47267 17.5275 2.10024 15.777 1.53146C14.9094 1.24958 13.8682 1.24975 12.1619 1.25002H11.8383ZM2.77825 11.0038C0.987768 9.62126 1.96397 6.75003 4.23087 6.75003H4.28317C4.25004 7.33514 4.25007 8.03687 4.2501 8.91608L4.2501 10.416C4.25002 11.0411 4.24996 11.5801 4.27009 12.0623L2.77825 11.0038ZM21.2221 11.0038L19.7301 12.0624C19.7503 11.5804 19.7502 11.0416 19.7501 10.4169L19.7501 8.91603C19.7501 8.03693 19.7502 7.33509 19.717 6.75003H19.7695C22.0364 6.75003 23.0126 9.62126 21.2221 11.0038ZM8.68678 2.95804C9.29849 2.75929 10.0805 2.75003 12.0001 2.75003C13.9198 2.75003 14.7017 2.75929 15.3134 2.95804C16.6073 3.37844 17.6217 4.39285 18.0421 5.68671C18.0844 5.81689 18.119 5.95938 18.1468 6.12463C18.2475 6.72223 18.2501 7.52818 18.2501 9.00003V10.3004C18.2501 11.9475 18.2427 12.7174 18.0387 13.3896C18.0108 13.4814 17.979 13.5717 17.9426 13.6622C17.761 14.1134 17.3717 14.7078 17.0307 15.0546C16.4712 15.6237 15.9293 15.8703 14.5328 16.4791C14.0066 16.7085 13.5001 16.9052 13.0504 17.0434C12.5897 17.185 12.2361 17.25 12.0001 17.25C11.7641 17.25 11.4105 17.185 10.9498 17.0434C10.5002 16.9052 9.99361 16.7085 9.46741 16.4791C8.07096 15.8703 7.52902 15.6237 6.96954 15.0546C6.62855 14.7078 6.23924 14.1134 6.0576 13.6622C6.0201 13.569 5.98751 13.4761 5.95905 13.3814C5.75741 12.7107 5.75011 11.9405 5.75011 10.3004V9.00003C5.75011 7.52818 5.75272 6.72223 5.8534 6.12463C5.88124 5.95938 5.91582 5.81688 5.95812 5.68671C6.37852 4.39285 7.39292 3.37844 8.68678 2.95804Z" clip-rule="evenodd"/></svg>