<svg xmlns="http://www.w3.org/2000/svg" width="19" height="19" fill="none" viewBox="0 0 19 19"><path fill="#303841" fill-rule="evenodd" d="M1.22036 0.520329C1.13739 0.152379 0.801118 -0.0713259 0.469272 0.0206707C0.137427 0.112667 -0.0643271 0.485528 0.0186424 0.853478L0.887264 4.70561L1.69557 8.44513C2.03926 10.0352 2.3098 11.2869 2.63083 12.2592C2.96013 13.2566 3.36395 14.0309 4.01186 14.6246C4.06777 14.6759 4.12474 14.7257 4.18271 14.774C4.85447 15.3343 5.62768 15.5892 6.57917 15.7118C7.50674 15.8314 8.66747 15.8314 10.1421 15.8313H10.6323C11.9082 15.8314 12.9125 15.8314 13.7217 15.7406C14.5504 15.6477 15.2324 15.4549 15.846 15.0288C16.1371 14.8267 16.4076 14.5902 16.6527 14.3235C17.2297 13.6953 17.5721 12.9066 17.8669 11.8838C18.0836 11.1315 18.2856 10.2111 18.5286 9.08799L18.589 8.80877C18.7683 7.97926 18.9161 7.29557 18.9732 6.7417C19.0324 6.16686 19.0082 5.61952 18.7494 5.11977C18.6388 4.90602 18.5004 4.71145 18.3387 4.54228C17.9607 4.14676 17.4863 3.99312 16.9683 3.92304C16.4693 3.85551 15.8352 3.85553 15.0659 3.85555L1.97242 3.85555L1.22036 0.520329ZM2.891 8.08259L2.27419 5.22903H15.0257C15.8453 5.22903 16.4032 5.23024 16.8183 5.28641C17.2232 5.34119 17.3892 5.43726 17.4885 5.54118C17.562 5.61808 17.6249 5.70652 17.6752 5.80368C17.7432 5.93498 17.7888 6.13638 17.7425 6.58572C17.7004 6.994 17.5943 7.5131 17.4378 8.24105L11.3551 8.24105C11.013 8.24105 10.7357 8.54852 10.7357 8.9278C10.7357 9.30707 11.013 9.61454 11.3551 9.61454L17.1393 9.61454C17.0245 10.1333 16.9199 10.5867 16.8166 10.988H13.8325C13.4904 10.988 13.2131 11.2955 13.2131 11.6748C13.2131 12.054 13.4904 12.3615 13.8325 12.3615H16.3816C16.2057 12.7852 16.0156 13.0922 15.7849 13.3434C15.6037 13.5405 15.4038 13.7153 15.1887 13.8647C14.7972 14.1365 14.3242 14.2926 13.597 14.3741C12.8574 14.4571 11.9155 14.4579 10.5983 14.4579H10.1816C8.6589 14.4579 7.57 14.4568 6.72218 14.3475C5.89002 14.2403 5.35798 14.0356 4.92729 13.6764C4.88444 13.6406 4.84234 13.6038 4.80101 13.5659C4.38561 13.1853 4.08204 12.6593 3.79404 11.787C3.50061 10.8983 3.24588 9.72443 2.891 8.08259Z" clip-rule="evenodd"/><path fill="#303841" d="M8.44301 18.0362C8.44301 18.5685 8.05382 19 7.57374 19C7.09365 19 6.70447 18.5685 6.70447 18.0362C6.70447 17.5038 7.09365 17.0723 7.57374 17.0723C8.05382 17.0723 8.44301 17.5038 8.44301 18.0362Z"/><path fill="#303841" d="M13.6586 18.0362C13.6586 18.5685 13.2694 19 12.7894 19C12.3093 19 11.9201 18.5685 11.9201 18.0362C11.9201 17.5038 12.3093 17.0723 12.7894 17.0723C13.2694 17.0723 13.6586 17.5038 13.6586 18.0362Z"/></svg>