<svg width="13" height="10" viewBox="0 0 13 10" fill="none" xmlns="http://www.w3.org/2000/svg">
<path d="M1.21875 1.5625C1.21875 1.04473 1.7644 0.625 2.4375 0.625H10.5625C11.2356 0.625 11.7812 1.04473 11.7812 1.5625V8.4375C11.7812 8.95527 11.2356 9.375 10.5625 9.375H2.4375C1.7644 9.375 1.21875 8.95527 1.21875 8.4375V1.5625Z" fill="white"/>
<path d="M2.03125 7.8125C2.03125 7.63991 2.21313 7.5 2.4375 7.5H10.5625C10.7869 7.5 10.9688 7.63991 10.9688 7.8125V8.4375C10.9688 8.61009 10.7869 8.75 10.5625 8.75H2.4375C2.21313 8.75 2.03125 8.61009 2.03125 8.4375V7.8125Z" fill="#3EB972"/>
<path d="M2.03125 1.5625C2.03125 1.38991 2.21313 1.25 2.4375 1.25H10.5625C10.7869 1.25 10.9688 1.38991 10.9688 1.5625V7.8125C10.9688 7.98509 10.7869 8.125 10.5625 8.125H2.4375C2.21313 8.125 2.03125 7.98509 2.03125 7.8125V1.5625Z" fill="url(#paint0_linear_47_4318)"/>
<path fill-rule="evenodd" clip-rule="evenodd" d="M8.9375 2.03125C9.27405 2.03125 9.54688 2.24112 9.54688 2.5V3.125C9.54688 3.21754 9.51126 3.30802 9.44453 3.38502L6.19453 7.13502C6.09326 7.25186 5.92922 7.32763 5.74755 7.34147C5.56587 7.35531 5.3857 7.30576 5.25661 7.20646L3.63161 5.95646C3.51733 5.86855 3.45312 5.74932 3.45312 5.625V5C3.45312 4.74112 3.72595 4.53125 4.0625 4.53125C4.39905 4.53125 4.67188 4.74112 4.67188 5V5.43084L5.59279 6.13923L8.32812 2.98307V2.5C8.32812 2.24112 8.60095 2.03125 8.9375 2.03125Z" fill="#3EB972"/>
<path fill-rule="evenodd" clip-rule="evenodd" d="M9.27552 2.11003C9.55555 2.25363 9.63121 2.54466 9.44453 2.76007L6.19453 6.51007C6.09326 6.62691 5.92922 6.70268 5.74755 6.71652C5.56587 6.73036 5.3857 6.68081 5.25661 6.58151L3.63161 5.33151C3.39363 5.14845 3.39363 4.85165 3.63161 4.66859C3.86958 4.48554 4.25542 4.48554 4.49339 4.66859L5.59279 5.51428L8.43047 2.24003C8.61715 2.02463 8.9955 1.96642 9.27552 2.11003Z" fill="#0BA800"/>
<defs>
<linearGradient id="paint0_linear_47_4318" x1="6.5" y1="1.25" x2="6.5" y2="8.125" gradientUnits="userSpaceOnUse">
<stop stop-color="#D9F2DA"/>
<stop offset="1" stop-color="#98DDB5"/>
</linearGradient>
</defs>
</svg>
