<svg xmlns="http://www.w3.org/2000/svg" width="23" height="33" fill="none" viewBox="0 0 23 33"><path fill="#F24E1E" d="M10.4486 31.1667C2.72654 31.1667 0.227051 24.057 0.227051 20.6122C0.227051 18.2398 0.886815 16.687 1.33723 15.8968C1.33723 17.1233 1.6116 18.2068 2.10008 18.8302C2.22722 19.0074 2.38603 19.1508 2.56561 19.2505C2.74519 19.3502 2.9413 19.4038 3.14048 19.4077C4.00008 19.4077 4.57737 18.6743 4.57737 17.5743C4.57737 16.8887 4.21418 16.4248 3.83038 15.9335C3.36569 15.3395 2.87879 14.7235 2.87879 13.5832C2.87879 12.2008 3.602 10.8918 4.0873 10.1695C4.0873 12.5345 5.46076 13.5282 6.26008 13.7262L6.57728 13.8068L6.5297 13.4402C6.5297 13.4182 6.26484 11.1247 7.82861 8.87699C8.02527 8.59466 8.23303 8.30866 8.44079 8.02266C9.53353 6.51749 10.6612 4.96282 10.6612 3.31282C10.6562 2.37827 10.4874 1.45459 10.1647 0.597656C13.546 2.74266 13.4953 5.73099 13.1416 7.36816C13.0512 7.78982 12.6325 9.94399 13.3288 10.9762C13.4515 11.1564 13.6095 11.3004 13.7899 11.396C13.9703 11.4916 14.1677 11.5363 14.366 11.5262C15.0987 11.5262 15.6855 11.011 16.0614 10.0357C16.1695 9.74941 16.255 9.45242 16.3167 9.14832C17.9645 11.3025 17.5506 13.2623 16.8845 14.5567C16.2739 15.741 16.101 16.9565 16.4436 17.655C16.5421 17.8531 16.6869 18.0151 16.8613 18.1224C17.0358 18.2298 17.2329 18.2781 17.4301 18.2618C17.6145 18.2658 17.7974 18.2232 17.9662 18.1371C18.1349 18.051 18.2853 17.9234 18.407 17.7632C18.9367 17.083 19.0414 15.8363 19.0414 14.9967C19.7059 16.0692 20.518 17.7192 20.518 20.0328C20.518 21.8662 19.9391 24.6712 18.3182 27.0472C17.0383 28.9263 14.6308 31.1667 10.4486 31.1667Z"/><path fill="#000" d="M20.1418 15.7392C20.1689 16.0829 20.1779 16.4282 20.1688 16.7732C19.862 15.9609 19.4688 15.196 18.9983 14.4962C19.1569 13.2843 18.9159 11.7608 17.5282 10.1658C17.507 10.358 17.4752 10.5485 17.433 10.736C17.1468 9.92592 16.7142 9.19585 16.1642 8.59467C16.1642 8.59467 15.9311 11.066 14.5259 11.253C14.4853 10.4966 14.548 9.73745 14.7115 9.0035C14.9272 8.00617 15.3649 5.03433 12.6101 2.66933C12.0375 1.72517 11.1018 0.788333 9.64429 0C10.1544 1.00524 10.4314 2.14572 10.4484 3.311C10.4484 5.16817 8.87351 6.97767 7.66341 8.70833C6.014 11.0807 6.31851 13.475 6.31851 13.475C6.19092 13.4387 6.06665 13.3884 5.94739 13.3247C5.72694 12.7453 5.61275 11.9845 5.72853 10.978C5.3989 11.3783 5.10457 11.8156 4.8499 12.2833C4.47402 11.6692 4.21551 10.7543 4.37411 9.39767C4.37411 9.39767 2.6676 11.374 2.6676 13.5795C2.6676 15.785 4.35666 16.2433 4.35666 17.578C4.35666 18.5533 3.86343 19.1547 3.14657 19.1547H3.13546C2.93311 18.3455 2.87537 17.4971 2.96577 16.6613C2.5784 17.1387 2.26652 17.691 2.04432 18.293C1.65575 17.5303 1.48605 16.3442 1.60659 15.0883C1.60659 15.0883 0 16.8392 0 20.614C0 22.9167 1.01026 26.4367 3.55575 28.831C5.19088 31.1465 7.83787 33 11.8028 33C19.5392 33 22.1005 25.5475 22.1005 21.604C22.1053 18.7 20.8492 16.7842 20.1418 15.7392ZM18.1372 26.8858C16.8858 28.7192 14.537 30.9045 10.4436 30.9045C2.89281 30.9045 0.452002 23.9708 0.452002 20.614C0.432511 19.2882 0.676113 17.975 1.1641 16.775C1.26719 17.6917 1.53522 18.4947 1.93488 19.0117C2.08316 19.2173 2.26829 19.3834 2.47749 19.4983C2.68669 19.6132 2.91497 19.6742 3.14657 19.6772C4.12511 19.6772 4.80866 18.8137 4.80866 17.578C4.80866 16.7915 4.39948 16.2672 4.00299 15.7612C3.54623 15.1782 3.11643 14.6263 3.11643 13.5868C3.11643 12.5932 3.51768 11.6307 3.91735 10.9212C3.99729 11.6383 4.25885 12.3121 4.66916 12.8578C5.07946 13.4035 5.62019 13.7969 6.22335 13.9883L6.85774 14.1423L6.76892 13.409C6.72984 12.9471 6.74692 12.4812 6.81968 12.0248C6.9922 10.9277 7.40437 9.89966 8.01708 9.03833C8.21216 8.75783 8.42309 8.46633 8.62768 8.18767C9.74579 6.64767 10.9004 5.0545 10.9004 3.311C10.8974 2.59582 10.7974 1.88562 10.6038 1.20633C13.3 3.223 13.2413 5.83183 12.9225 7.30583C12.7877 7.92733 12.4071 10.0375 13.1493 11.1375C13.2935 11.3489 13.4788 11.518 13.6902 11.6311C13.9015 11.7442 14.133 11.798 14.3657 11.7883C14.9446 11.7883 15.7439 11.5023 16.2689 10.1383C16.3255 9.99452 16.3747 9.84699 16.4164 9.6965C17.655 11.5848 17.2792 13.2788 16.6908 14.4192C16.0294 15.7025 15.8597 16.9858 16.2483 17.7797C16.3681 18.0158 16.5419 18.2093 16.7506 18.3386C16.9594 18.468 17.1949 18.5284 17.4314 18.513C17.6476 18.5162 17.8617 18.4655 18.0594 18.3642C18.257 18.263 18.4334 18.1136 18.5765 17.9263C18.9968 17.3873 19.1744 16.5513 19.2394 15.7978C19.9262 17.0612 20.2917 18.5224 20.2941 20.0145C20.3004 21.8167 19.7279 24.5667 18.1419 26.8858H18.1372Z"/></svg>