<svg width="19" height="19" viewBox="0 0 19 19" fill="none" xmlns="http://www.w3.org/2000/svg">
<g clip-path="url(#clip0_37_2795)">
<path fill-rule="evenodd" clip-rule="evenodd" d="M14.0372 1.18131C13.0906 0.789228 12.1718 1.03394 11.5182 1.61151C10.8797 2.17567 10.4896 3.05317 10.4896 3.98547V4.75001C10.4896 7.04544 12.3504 8.90626 14.6459 8.90626H15.4104C16.3427 8.90626 17.2202 8.51616 17.7844 7.87773C18.3619 7.22413 18.6067 6.30524 18.2146 5.35867C17.8267 4.42219 17.2581 3.57128 16.5414 2.85453C15.8246 2.13777 14.9737 1.56921 14.0372 1.18131ZM11.6771 3.98547C11.6771 3.3725 11.9365 2.82652 12.3045 2.50136C12.6573 2.1896 13.1017 2.07915 13.5828 2.27842C14.3752 2.60664 15.0952 3.08773 15.7017 3.69422C16.3082 4.3007 16.7892 5.0207 17.1175 5.81311C17.3167 6.29418 17.2063 6.7386 16.8945 7.0914C16.5694 7.45937 16.0234 7.71876 15.4104 7.71876H14.6459C13.0063 7.71876 11.6771 6.3896 11.6771 4.75001V3.98547Z" fill="#090A0A"/>
<path fill-rule="evenodd" clip-rule="evenodd" d="M9.30213 5.14584C9.30213 3.99052 8.32307 2.86122 7.00715 3.15857C6.08865 3.36611 5.21106 3.74108 4.42007 4.2696C3.15073 5.11775 2.1614 6.32325 1.57718 7.73367C0.992968 9.14409 0.840111 10.6961 1.13794 12.1934C1.43577 13.6907 2.17091 15.066 3.2504 16.1455C4.32988 17.225 5.70523 17.9601 7.20252 18.2579C8.69981 18.5558 10.2518 18.4029 11.6622 17.8187C13.0726 17.2345 14.2781 16.2452 15.1263 14.9758C15.6548 14.1848 16.0298 13.3072 16.2373 12.3887C16.5347 11.0728 15.4054 10.0938 14.25 10.0938H12.6667C10.8085 10.0938 9.30213 8.58738 9.30213 6.72917V5.14584ZM7.26889 4.31686C7.65887 4.22874 8.11463 4.55226 8.11463 5.14584V6.72917C8.11463 9.24322 10.1527 11.2813 12.6667 11.2813H14.25C14.8436 11.2813 15.1671 11.737 15.079 12.127C14.9034 12.9042 14.5861 13.6468 14.1389 14.3161C13.4213 15.3901 12.4012 16.2273 11.2078 16.7216C10.0143 17.2159 8.70113 17.3453 7.43419 17.0933C6.16726 16.8413 5.0035 16.2192 4.09009 15.3058C3.17667 14.3924 2.55463 13.2286 2.30262 11.9617C2.05061 10.6948 2.17995 9.38154 2.67429 8.18811C3.16862 6.99468 4.00575 5.97463 5.07981 5.25697C5.74911 4.80976 6.49167 4.49249 7.26889 4.31686Z" fill="#090A0A"/>
</g>
<defs>
<clipPath id="clip0_37_2795">
<rect width="19" height="19" fill="white"/>
</clipPath>
</defs>
</svg>
