<svg width="21" height="21" viewBox="0 0 21 21" fill="none" xmlns="http://www.w3.org/2000/svg">
<path d="M13.6818 10.5994C13.3193 10.5994 13.0255 10.8933 13.0255 11.2557C13.0255 11.6181 13.3193 11.9119 13.6818 11.9119H16.0681C16.4306 11.9119 16.7244 11.6181 16.7244 11.2557C16.7244 10.8933 16.4306 10.5994 16.0681 10.5994H13.6818Z" fill="#090A0A"/>
<path fill-rule="evenodd" clip-rule="evenodd" d="M17.1915 2.95529C17.2592 3.34375 17.2756 3.8054 17.2802 4.33356C17.3561 4.37315 17.4306 4.4153 17.5038 4.46016C18.1808 4.87501 18.75 5.4442 19.1648 6.12118C19.6216 6.86656 19.7877 7.73042 19.8563 8.8284C19.9062 9.62717 19.9062 10.5987 19.9062 11.792V11.8167C19.9062 12.5009 19.9062 13.1105 19.8972 13.653C19.8692 15.3399 19.76 16.5326 19.1648 17.5038C18.75 18.1808 18.1808 18.75 17.5038 19.1648C16.8573 19.561 16.124 19.7376 15.2284 19.8227C14.3497 19.9063 13.2499 19.9063 11.847 19.9063H9.15301C7.75008 19.9063 6.6502 19.9063 5.77156 19.8227C4.87595 19.7376 4.14261 19.561 3.49614 19.1648C2.81916 18.75 2.24997 18.1808 1.83512 17.5038C1.43896 16.8574 1.2624 16.124 1.17725 15.2284C1.0937 14.3497 1.09371 13.2499 1.09371 11.8469L1.09378 11.3869C1.08225 10.9545 1.08579 10.4711 1.08961 9.94993C1.09162 9.67521 1.09371 9.38998 1.09371 9.09618L1.09371 9.05824C1.0937 7.56003 1.0937 6.38419 1.19068 5.45097C1.2896 4.49915 1.49529 3.72279 1.9592 3.05713C2.23948 2.65494 2.57951 2.30014 2.96741 2.00632C3.61344 1.51699 4.36942 1.29946 5.29133 1.19533C6.19077 1.09374 7.32228 1.09374 8.75562 1.09375L13.5402 1.09375C14.2389 1.09372 14.8312 1.0937 15.3033 1.15987C15.8076 1.23056 16.2704 1.38781 16.6407 1.77387C16.9622 2.10898 17.1145 2.51325 17.1915 2.95529ZM13.494 2.40625C14.2515 2.40625 14.7508 2.40777 15.1211 2.45967C15.4696 2.50852 15.6052 2.59034 15.6935 2.68242C15.7752 2.76758 15.8489 2.89615 15.8985 3.18068C15.9317 3.37093 15.9498 3.60346 15.9593 3.90092C15.5982 3.83481 15.2084 3.79408 14.7839 3.76788C13.9876 3.71875 13.0199 3.71875 11.8327 3.71875H9.15302C7.75006 3.71875 6.65022 3.71874 5.77156 3.80229C4.87595 3.88744 4.14261 4.064 3.49614 4.46016C3.14764 4.67372 2.82771 4.92817 2.5427 5.21718C2.63874 4.58077 2.79602 4.15192 3.036 3.80755C3.23864 3.51679 3.48312 3.26221 3.75989 3.05257C4.14291 2.76246 4.6354 2.59027 5.43864 2.49954C6.25586 2.40723 7.31327 2.40625 8.7964 2.40625H13.494ZM4.18192 5.57925C4.5875 5.33071 5.09625 5.18491 5.89579 5.10889C6.70509 5.03195 7.74263 5.03125 9.18746 5.03125H11.8125C13.024 5.03125 13.9518 5.03154 14.703 5.07789C15.4536 5.12421 15.9783 5.21449 16.392 5.37159C16.5469 5.43042 16.6871 5.49903 16.818 5.57925C17.3184 5.88588 17.7391 6.30658 18.0457 6.80696C18.2615 7.1591 18.399 7.58712 18.4814 8.21308H13.6818C12.0014 8.21308 10.6392 9.57531 10.6392 11.2557C10.6392 12.9361 12.0014 14.2983 13.6818 14.2983H18.5669C18.5163 15.5761 18.3769 16.2776 18.0457 16.818C17.7391 17.3184 17.3184 17.7391 16.818 18.0458C16.4124 18.2943 15.9037 18.4401 15.1041 18.5161C14.2948 18.5931 13.2573 18.5938 11.8125 18.5938H9.18746C7.74263 18.5938 6.70509 18.5931 5.89579 18.5161C5.09625 18.4401 4.5875 18.2943 4.18192 18.0458C3.68154 17.7391 3.26084 17.3184 2.95421 16.818C2.70566 16.4125 2.55987 15.9037 2.48385 15.1042C2.4069 14.2949 2.40621 13.2573 2.40621 11.8125C2.40621 10.3677 2.4069 9.33013 2.48385 8.52083C2.55987 7.7213 2.70566 7.21255 2.95421 6.80696C3.26084 6.30658 3.68154 5.88588 4.18192 5.57925ZM11.9517 11.2557C11.9517 10.3002 12.7263 9.52558 13.6818 9.52558H18.5741C18.5936 10.159 18.5937 10.9064 18.5937 11.8125C18.5937 12.2359 18.5937 12.6254 18.5917 12.9858H13.6818C12.7263 12.9858 11.9517 12.2112 11.9517 11.2557Z" fill="#090A0A"/>
</svg>
