<svg width="24" height="24" viewBox="0 0 24 24" fill="none" xmlns="http://www.w3.org/2000/svg">
<path d="M17.54 8.31063C18.1924 8.31063 18.8181 8.05145 19.2795 7.59011C19.7408 7.12877 20 6.50306 20 5.85062C20 5.19819 19.7408 4.57248 19.2795 4.11114C18.8181 3.6498 18.1924 3.39062 17.54 3.39062C16.8876 3.39063 16.2619 3.6498 15.8005 4.11114C15.3392 4.57248 15.08 5.19819 15.08 5.85062C15.08 6.50306 15.3392 7.12877 15.8005 7.59011C16.2619 8.05145 16.8876 8.31063 17.54 8.31063V8.31063ZM6.46 8.31063C7.11243 8.31063 7.73814 8.05145 8.19948 7.59011C8.66082 7.12877 8.92 6.50306 8.92 5.85062C8.92 5.19819 8.66082 4.57248 8.19948 4.11114C7.73814 3.6498 7.11243 3.39062 6.46 3.39062C5.80757 3.39063 5.18186 3.6498 4.72052 4.11114C4.25918 4.57248 4 5.19819 4 5.85062C4 6.50306 4.25918 7.12877 4.72052 7.59011C5.18186 8.05145 5.80757 8.31063 6.46 8.31063V8.31063ZM17.54 20.6106C17.8631 20.6106 18.1829 20.547 18.4814 20.4234C18.7799 20.2997 19.051 20.1185 19.2795 19.8901C19.5079 19.6617 19.6891 19.3905 19.8127 19.092C19.9364 18.7936 20 18.4737 20 18.1506C20 17.8276 19.9364 17.5077 19.8127 17.2092C19.6891 16.9108 19.5079 16.6396 19.2795 16.4111C19.051 16.1827 18.7799 16.0015 18.4814 15.8779C18.1829 15.7543 17.8631 15.6906 17.54 15.6906C16.8876 15.6906 16.2619 15.9498 15.8005 16.4111C15.3392 16.8725 15.08 17.4982 15.08 18.1506C15.08 18.8031 15.3392 19.4288 15.8005 19.8901C16.2619 20.3514 16.8876 20.6106 17.54 20.6106V20.6106ZM6.46 20.6106C6.78305 20.6106 7.10294 20.547 7.4014 20.4234C7.69986 20.2997 7.97105 20.1185 8.19948 19.8901C8.42792 19.6617 8.60912 19.3905 8.73274 19.092C8.85637 18.7936 8.92 18.4737 8.92 18.1506C8.92 17.8276 8.85637 17.5077 8.73274 17.2092C8.60912 16.9108 8.42792 16.6396 8.19948 16.4111C7.97105 16.1827 7.69986 16.0015 7.4014 15.8779C7.10294 15.7543 6.78305 15.6906 6.46 15.6906C5.80757 15.6906 5.18186 15.9498 4.72052 16.4111C4.25918 16.8725 4 17.4982 4 18.1506C4 18.8031 4.25918 19.4288 4.72052 19.8901C5.18186 20.3514 5.80757 20.6106 6.46 20.6106V20.6106Z" stroke="#345AFA" stroke-width="1.5" stroke-miterlimit="10" stroke-linecap="round" stroke-linejoin="round"/>
</svg>
