<svg width="24" height="24" viewBox="0 0 24 24" fill="none" xmlns="http://www.w3.org/2000/svg">
<g clip-path="url(#clip0_47_4144)">
<path d="M24.0026 7.04637L23.8693 7.17971C23.3172 7.73171 22.5771 8.20371 21.6597 8.20371C21.2465 8.19926 20.8383 8.11175 20.4596 7.94637L17.1579 12.7624C18.266 15.041 18.0913 17.3437 16.5031 18.9264L16.3698 19.0597L12.6867 15.3717L1.94685 23.9997L1.23877 23.2917L9.86773 12.5504L6.18199 8.86637L6.31533 8.73304C7.89684 7.15171 10.1998 6.97037 12.4774 8.08237L17.2979 4.77837C16.6658 3.29304 17.2859 2.14504 18.0633 1.36771L18.1967 1.23438L24.0026 7.04637Z" fill="black"/>
<path d="M22.4985 5.80891C21.6171 6.69158 20.4983 7.09158 19.1581 6.46891L15.7044 11.5062C16.8672 13.8236 16.6018 16.0889 15.1337 17.5569L5.20056 7.62758C6.66739 6.16091 8.93431 5.89424 11.2492 7.05691L16.2925 3.60091C15.6697 2.26758 16.0698 1.14491 16.9525 0.267578L22.4985 5.80891Z" fill="#FFC700"/>
<path d="M11.4613 13.8842L0.721433 22.5122L0.248047 22.0388L8.87567 11.2988L11.4613 13.8842Z" fill="#CFE2FF"/>
<path d="M16.9526 0L16.8192 0.133333C16.0431 0.909333 15.423 2.05867 16.0538 3.544L11.2372 6.844C8.95833 5.73333 6.65541 5.91067 5.0739 7.496L4.94055 7.62933L8.62763 11.312L0 22.052L0.708079 22.76L11.4479 14.1333L15.1337 17.8187L15.267 17.6853C16.8485 16.104 17.0299 13.8 15.9204 11.5213L19.2235 6.704C19.602 6.87022 20.0102 6.9582 20.4236 6.96267C21.341 6.96267 22.0798 6.49067 22.6332 5.93733L22.7665 5.804L16.9526 0ZM0.734748 22.2667L0.497389 22.0293L8.89032 11.576L11.1839 13.8667L0.734748 22.2667ZM15.1363 17.2947L5.46727 7.62933C6.87943 6.32933 8.87299 6.17867 10.8812 7.08667C11.0146 7.144 11.1359 7.20533 11.2639 7.27333C12.1576 7.74812 12.973 8.35746 13.6815 9.08C14.4029 9.78854 15.0121 10.6028 15.4884 11.4947C15.5551 11.628 15.6217 11.7507 15.6737 11.8787C16.5818 13.8853 16.4312 15.88 15.131 17.2907L15.1363 17.2947ZM15.7297 11.1533C15.2492 10.296 14.6499 9.51091 13.9496 8.82133C13.2591 8.12105 12.4735 7.52139 11.616 7.04L16.2231 3.88267C16.5338 4.43829 16.9247 4.94507 17.3833 5.38667C17.8252 5.84486 18.332 6.2357 18.8874 6.54667L15.7297 11.1533ZM19.4395 6.39467C19.3234 6.34881 19.2099 6.29673 19.0995 6.23867C18.5611 5.94308 18.0706 5.56772 17.6446 5.12533C17.2023 4.69985 16.8269 4.20985 16.5312 3.672C16.4711 3.56221 16.4172 3.44914 16.3698 3.33333C15.9698 2.33067 16.1658 1.39333 16.9552 0.533333L22.2345 5.81067C21.3757 6.59467 20.4383 6.78933 19.4342 6.39067L19.4395 6.39467Z" fill="black"/>
</g>
<defs>
<clipPath id="clip0_47_4144">
<rect width="24" height="24" rx="10" fill="white"/>
</clipPath>
</defs>
</svg>
