<svg xmlns="http://www.w3.org/2000/svg" width="195" height="173" fill="none" viewBox="0 0 195 173"><path stroke="#FF2A60" stroke-width="6" d="M137.819 157.185C127.091 162.814 114.879 165.999 101.923 165.999C59.1991 165.999 24.5643 131.364 24.5643 88.6402C24.5643 45.916 59.1991 11.2812 101.923 11.2812C144.647 11.2812 179.282 45.916 179.282 88.6402C179.282 107.661 172.417 125.079 161.03 138.551L168.217 162.124L169.897 167.637L164.418 165.852L137.819 157.185Z"/><path stroke="#FF2A60" stroke-width="6" d="M111.564 54.2817C111.564 62.1025 118.102 68.6406 125.923 68.6406C133.744 68.6406 140.282 62.1025 140.282 54.2817"/><path stroke="#FF2A60" stroke-width="6" d="M58.2305 54.2817C58.2305 62.1025 64.5352 68.6406 72.0767 68.6406C79.6182 68.6406 85.9229 62.1025 85.9229 54.2817"/><path stroke="#FF2A60" stroke-width="6" d="M82.846 113C82.846 105.179 89.3841 98.6406 97.205 98.6406C105.026 98.6406 111.564 105.179 111.564 113"/><rect width="111.795" height="24.615" fill="#FF2A60" fill-opacity=".13" rx="12.308" transform="matrix(1 0 0 -1 0 93.6152)"/><rect width="111.795" height="24.615" fill="#FF2A60" fill-opacity=".13" rx="12.308" transform="matrix(1 0 0 -1 70 118.615)"/><rect width="111.795" height="23.59" fill="#FF2A60" fill-opacity=".13" rx="11.795" transform="matrix(1 0 0 -1 14 141.59)"/><path fill="#FF2A60" d="M168.611 16.4468C168.324 16.1609 167.934 16.0005 167.529 16.0005C167.123 16.0005 166.734 16.1609 166.446 16.4468C166.16 16.7355 166 17.1254 166 17.5318C166 17.9381 166.16 18.328 166.446 18.6168L170.82 22.9888L166.451 27.3613C166.165 27.649 166.005 28.0381 166.005 28.4438C166.005 28.8494 166.165 29.2385 166.451 29.5263C166.739 29.8121 167.128 29.9725 167.534 29.9725C167.939 29.9725 168.329 29.8121 168.616 29.5263L172.986 25.1543L177.356 29.5218C177.644 29.8076 178.033 29.968 178.439 29.968C178.844 29.968 179.234 29.8076 179.521 29.5218C179.807 29.234 179.968 28.8449 179.968 28.4393C179.968 28.0336 179.807 27.6445 179.521 27.3568L175.152 22.9873L179.526 18.6113C179.812 18.3235 179.972 17.9344 179.972 17.5288C179.972 17.1231 179.812 16.734 179.526 16.4463C178.926 15.8512 177.951 15.8512 177.356 16.4463L172.986 20.8213L168.611 16.4463L168.611 16.4468Z"/><path fill="#FF2A60" d="M8.61131 40.4468C8.32355 40.1609 7.93441 40.0005 7.52881 40.0005C7.12321 40.0005 6.73407 40.1609 6.44631 40.4468C6.16039 40.7355 6 41.1254 6 41.5318C6 41.9381 6.16039 42.328 6.44631 42.6168L10.8198 46.9888L6.45131 51.3613C6.16546 51.649 6.00503 52.0381 6.00503 52.4438C6.00503 52.8494 6.16546 53.2385 6.45131 53.5263C6.73907 53.8121 7.12821 53.9725 7.53381 53.9725C7.93941 53.9725 8.32855 53.8121 8.61631 53.5263L12.9863 49.1543L17.3563 53.5218C17.6441 53.8076 18.0332 53.968 18.4388 53.968C18.8444 53.968 19.2336 53.8076 19.5213 53.5218C19.8072 53.234 19.9676 52.8449 19.9676 52.4393C19.9676 52.0336 19.8072 51.6445 19.5213 51.3568L15.1523 46.9873L19.5258 42.6113C19.8117 42.3235 19.9721 41.9344 19.9721 41.5288C19.9721 41.1231 19.8117 40.734 19.5258 40.4463C18.9258 39.8512 17.9508 39.8512 17.3558 40.4463L12.9858 44.8213L8.61081 40.4463L8.61131 40.4468Z"/><rect width="14" height="14" x="-1.5" y="1.5" stroke="#FF2A60" stroke-width="3" rx="4.5" transform="matrix(1 0 0 -1 29 17)"/><rect width="14" height="14" x="-1.5" y="1.5" stroke="#FF2A60" stroke-width="3" rx="4.5" transform="matrix(1 0 0 -1 181 156)"/><rect width="14" height="14" x="-1.5" y="1.5" stroke="#FF2A60" stroke-width="3" rx="4.5" transform="matrix(1 0 0 -1 9 156)"/></svg>