<svg xmlns="http://www.w3.org/2000/svg" width="24" height="24" fill="none" viewBox="0 0 24 24"><path fill="#CFCFD0" d="M11.94 2.21178L9.52995 7.82178H7.11995C6.71995 7.82178 6.32995 7.85178 5.94995 7.93178L6.94995 5.53178L6.98995 5.44178L7.04995 5.28178C7.07995 5.21178 7.09995 5.15178 7.12995 5.10178C8.28995 2.41178 9.58995 1.57178 11.94 2.21178ZM18.731 8.08978L18.711 8.07978C18.111 7.90978 17.501 7.81978 16.881 7.81978H10.621L12.871 2.58978L12.901 2.51978C13.041 2.56978 13.191 2.63978 13.341 2.68978L15.551 3.61978C16.781 4.12978 17.641 4.65978 18.171 5.29978C18.261 5.41978 18.341 5.52978 18.421 5.65978C18.511 5.79978 18.581 5.93978 18.621 6.08978C18.661 6.17978 18.691 6.25978 18.711 6.34978C18.861 6.85978 18.871 7.43978 18.731 8.08978ZM12.52 17.6578H12.77C13.07 17.6578 13.32 17.3878 13.32 17.0578C13.32 16.6378 13.2 16.5778 12.94 16.4778L12.52 16.3278V17.6578Z"/><path fill="#CFCFD0" d="M18.288 9.52031C17.838 9.39031 17.368 9.32031 16.878 9.32031H7.11804C6.43804 9.32031 5.79804 9.45031 5.19804 9.71031C4.32015 10.088 3.57204 10.7144 3.04603 11.5123C2.52003 12.3102 2.23914 13.2446 2.23804 14.2003V16.1503C2.23804 16.3903 2.25804 16.6203 2.28804 16.8603C2.50804 20.0403 4.20804 21.7403 7.38804 21.9503C7.61804 21.9803 7.84804 22.0003 8.09804 22.0003H15.898C19.598 22.0003 21.548 20.2403 21.738 16.7403C21.748 16.5503 21.758 16.3503 21.758 16.1503V14.2003C21.7566 13.1516 21.4187 12.131 20.7941 11.2886C20.1695 10.4462 19.2911 9.82637 18.288 9.52031ZM13.278 15.5003C13.738 15.6603 14.358 16.0003 14.358 17.0603C14.358 17.9703 13.648 18.7003 12.768 18.7003H12.518V18.9203C12.518 19.2103 12.288 19.4403 11.998 19.4403C11.708 19.4403 11.478 19.2103 11.478 18.9203V18.7003H11.388C10.428 18.7003 9.63804 17.8903 9.63804 16.8903C9.63804 16.6003 9.86804 16.3703 10.158 16.3703C10.448 16.3703 10.678 16.6003 10.678 16.8903C10.678 17.3103 10.998 17.6603 11.388 17.6603H11.478V15.9703L10.718 15.7003C10.258 15.5403 9.63804 15.2003 9.63804 14.1403C9.63804 13.2303 10.348 12.5003 11.228 12.5003H11.478V12.2803C11.478 11.9903 11.708 11.7603 11.998 11.7603C12.288 11.7603 12.518 11.9903 12.518 12.2803V12.5003H12.608C13.568 12.5003 14.358 13.3103 14.358 14.3103C14.358 14.6003 14.128 14.8303 13.838 14.8303C13.548 14.8303 13.318 14.6003 13.318 14.3103C13.318 13.8903 12.998 13.5403 12.608 13.5403H12.518V15.2303L13.278 15.5003Z"/><path fill="#CFCFD0" d="M10.6801 14.1391C10.6801 14.5591 10.8001 14.6191 11.0601 14.7191L11.4801 14.8691V13.5391H11.2301C10.9201 13.5391 10.6801 13.8091 10.6801 14.1391Z"/></svg>